<svg xmlns="http://www.w3.org/2000/svg" width="451.143" height="467.112" viewBox="0 0 451.143 467.112">
  <g id="Grupo_12203" data-name="Grupo 12203" transform="translate(-2343.943 -8857.342)">
    <g id="Grupo_12201" data-name="Grupo 12201">
      <path id="Trazado_10517" data-name="Trazado 10517" d="M2523.705,9012.814a178.7,178.7,0,0,1,34.981,8.965c17.823,6.514,24.173,22.516,30.526,38.753,18.684,47.735,31.043,97.79,44.536,147.808a362.2,362.2,0,0,1,10.356,52.494,103.673,103.673,0,0,0-9.331,9.9l-111.068-257.92Z" fill="#fdbb45"/>
      <path id="Trazado_10518" data-name="Trazado 10518" d="M2475.932,9015.725c-17.086,0-32.807,5.356-46.564,11.394-20.213,8.871-32.757,34.052-39.747,55.675-11.238,34.774-39.332,122.79-45.678,170.613,5.382,11.96,5.382,11.96,19.854,26.919l112.135-264.6Z" fill="#fdbb45"/>
      <path id="Trazado_10519" data-name="Trazado 10519" d="M2460.742,8936.339c15.653-2.994,24.777-5.451,26.72-23.039,8.121-2.925,16.752-2.059,19.342.529,0,4.241.661,4.377,1.167,13.87.106,1.989,19.441,4.151,19.527,6.161.615,14.469-12.662,30.454-23.117,34.375-10.832,4.061-43.639-31.9-43.639-31.9Z" fill="#f6693b"/>
      <path id="Trazado_10520" data-name="Trazado 10520" d="M2529.034,8984.074c-6.069,5.288-3.888,9.039.5,11.816,5.806,3.674-5.1,4.149-4.522,7.343.225,1.222,4.074,1.369,5.091,1.853,2.291,1.087,2.22,1.532,2.618,3.53.292,1.474-.622,1.812.445,3.215.879,1.146,2.892,1.163,3.579,2.63,1.789,3.819-2.231,5.64,4.454,7.244,1.227.295,5.051,1.26,6.226.42.8-.574-.662-1.534-.136-2.04,1.822-1.741,5.112-.692,6.681-2.434.8-.89.356-3.1,1.124-4.254,1.032-1.555,3.135-2.167,4.262-3.589,2.3-2.9,5.742-2.45,5.479-7.3-.221-4.049-5.763-1.562-3.882-4.656.655-1.075,2.146-1.274,2.142-2.715,0-.929-1.633-1.538-1.754-2.4-.316-2.237,2.281-3.548,1.2-5.79-.872-1.81-3.5-2.193-5.091-3.036,0,0-25.009-2.815-28.421.162Z" fill="#fa0"/>
      <path id="Trazado_10521" data-name="Trazado 10521" d="M2532.346,8979.705c.388,3.636-1.131,4.974-3.852,7.43-4.835,4.363-.378,3.622,3.123,5.914,4.632,3.03-4.07,3.423-3.6,6.06.178,1.006,3.248,1.13,4.059,1.527,1.825.9,1.772,1.264,2.089,2.912.231,1.216-.5,1.5.355,2.653.7.947,2.3.959,2.85,2.169,1.43,3.151-1.779,4.655,3.55,5.978.982.243,4.035,1.04,4.966.348.641-.475-.526-1.267-.106-1.685,1.451-1.436,4.073-.57,5.325-2.008.641-.731.285-2.554.9-3.51.822-1.282,2.5-1.788,3.4-2.961,1.836-2.4.715-4.7,4.372-6.021-3.152-.755-4.6-1.291-3.095-3.843.52-.887,1.708-1.051,1.7-2.239,0-.767-1.3-1.268-1.4-1.981-.252-1.846,1.822-2.93.961-4.778-.694-1.492-2.8-1.809-4.063-2.5l-21.53-3.461Z" fill="#fcf9eb"/>
      <path id="Trazado_10522" data-name="Trazado 10522" d="M2563.8,8928.536l-7.457-3.583,14.625-35.407,11.341,5.449-18.51,33.541Z" fill="#fcf9eb"/>
      <path id="Trazado_10523" data-name="Trazado 10523" d="M2566.7,8932.723l.1.023-.452-.836a12.289,12.289,0,0,0-1.469-2.7l-3.073-5.664s-7.87-3.953-8.688-1.5c-.565,1.687,4.717,3.417,4.717,3.417l1.388,2.813a3.866,3.866,0,0,0-1.978,2.074c-2.156-1.374-3.984,1.2-4.924,3.331a3.8,3.8,0,0,0-2.266.61,50.871,50.871,0,0,0,.712,5.082c2.511-1.286,1.231-.113,1.643,1.942.189.944-1.277,1.952-1.067,6.44.149,3.2,2.654,5.577,2.3,8.476-.754,6.239-5.849,12.31-8.1,18.082-2-4.706-3.013-10.67-4.475-15.751-1.032-3.592-6.841-18.825-11.6-23.585-2.466-2.464-6.436-4.175-11.587-4.175,0,0,8.374,40.771,8.588,41.521a176.006,176.006,0,0,0,6.553,19.827c1.686,4.058.74,4.355,3.461,6.6,1.807,1.488,5.582,6.028,7.627,5.59,3.9-.834,10-12.115,11.754-16.062,3.59-8.049,5.4-20.139,7.432-28.588,1.7-7.059,2.927-13.92,6.133-19.654a65.19,65.19,0,0,0-2.722-7.309Z" fill="#fc8b59"/>
      <path id="Trazado_10524" data-name="Trazado 10524" d="M2545.534,8974.31c-2-4.706-3.013-10.67-4.475-15.751-1.032-3.592-6.841-18.825-11.6-23.585-2.466-2.464-6.436-4.175-11.591-4.175,0,0,8.378,40.771,8.592,41.521a176.006,176.006,0,0,0,6.553,19.827c1.686-4.416,12.522-17.837,12.522-17.837Z" fill="#fdbb45"/>
      <path id="Trazado_10525" data-name="Trazado 10525" d="M2545.2,8974.957c-1.128,2.044-3.5,3.635-4.835,5.763-.747,1.184-1.551,2.3-1.387,3.731.124,1.132,1.53,1.706,1.373,3.015-.274,2.295-3.244,2.117-4.208,3.883-1.42,2.6,1.334,3.016,1.874,5.287.609,2.556-1.387,3.477-3.692,4.131.266-3.017-1.9-3.09-3.366-5.08-.6-.82-.4-1.937-1.053-2.753-.7-.866-2.187-.953-2.721-1.971-1.452-2.771,1.064-4.761,2.746-5.992a44.535,44.535,0,0,1,5.543-3.961c1.939-1.021,3.685-3.147,5.994-3.471l3.732-2.582Z" fill="#fcf9eb"/>
      <path id="Trazado_10526" data-name="Trazado 10526" d="M2496.636,9024.919c-9.292,21.828-40.281,83.865-62.408,283.225-.751,6.8,8.161,5.306,8.84.783,4.55-2.2,10.68-1.209,15.657-.992-1.16,20.52,41.8,12.2,50.042,10.929-5.453-19.979,34.149-7.965,39.752-5.382-.129,2.767.889,5.1.793,7.9,6.553-.291,24.073,10.545,21.935-6.851,4.575,3.691,10.071-.406,14.326-3.182,7.549-4.916,7.556-9.42,5.852-20.653-4.226-27.884-8.31-57.892-15.354-84.6-7.2-27.282-16.03-110.25-53.2-182.669l-26.233,1.489Z" fill="#d4475a"/>
      <path id="Trazado_10527" data-name="Trazado 10527" d="M2508.319,9311.424c0-41.846-1.138-85.73-1.846-128.662-.64-38.573.726-123.705.726-125,0,45.861,10.2,175.253,10.829,194.78.547,16.994-1.2,40.41,18.271,35.1,4.966-19.207-2.064-99.14-5.635-122.039-2.494-16-5.788-31.886-7.389-47.954,0-.428,0-.428-.011-.015,5.849,20.751,19.093,107.45,21.32,129.4,2.117,20.847,1.885,43.839,3.732,64.362-.007.416-.011.423,0,0-6.076-8.937-29.983-10.261-38.873-10.261l-1.124,10.284Z" fill="#c12943"/>
      <path id="Trazado_10528" data-name="Trazado 10528" d="M2467.259,9232.7c4-25.27,13-104.785,14.532-118.631-11.889,28.915-22.675,66.4-28.815,99.4-5.561,29.848-9.872,60.4-9.392,91.146,4.82-4.978,9.9-.7,15.141-.7,0,0,6.289-57.012,8.534-71.217Z" fill="#c12943"/>
      <path id="Trazado_10529" data-name="Trazado 10529" d="M2571.624,9311.264c0-49.28-16.613-149.228-34.745-190.328,10.277,10.645,15.72,37.554,20.348,54.014,4.436,15.788,18.584,77.795,19.52,84.746,1.832,13.579,1.22,29.7,13.049,32.661.477,1.316.882,6.99.879,8.4-4.621,1.976-8.684,4.757-13.569,4.9-.668,1.018.388,6.24.413,7.414l-5.9-1.812Z" fill="#c12943"/>
      <path id="Trazado_10530" data-name="Trazado 10530" d="M2520.713,8949.967a4.166,4.166,0,0,0-4.165,4.166c0,.073.007.146.01.217-.071,0-.142-.011-.217-.011a4.16,4.16,0,0,1-7.748,1.788,4.168,4.168,0,0,1-7.752,1.192,4.163,4.163,0,0,1-7.947-1.192,140.085,140.085,0,0,1,15.7,8.332,4.16,4.16,0,0,1,7.748-1.788,4.169,4.169,0,0,0,4.17-4.166c0-.073-.011-.144-.015-.216.075,0,.146.011.217.011a4.167,4.167,0,0,0,0-8.333Zm-36.136,3.768a4.166,4.166,0,1,0,4.165,4.166,4.165,4.165,0,0,0-4.165-4.166Z" fill="#fffaf7"/>
      <path id="Trazado_10531" data-name="Trazado 10531" d="M2518.38,8958.286c-9.744,2-30.281,6.268-34.693-1.761-2.116-3.842-5.226-27.971-5.19-27.472,0,0,5.927,87,.622,95.525,5.728,1.147,45.163,1.584,50.232.668,0-14.4-4.86-27.687-4.86-39.255,2.875-4.389,4.522-29.895-6.111-27.706Z" fill="#d4475a"/>
      <path id="Trazado_10532" data-name="Trazado 10532" d="M2501.528,9026.376a26.531,26.531,0,0,1,6.752-.731c.736-1.46,3.2-2.483,3.241-4.179.053-2.286-3.785-2.573-3.863-4.718-.082-2.3,3.956-2,4.009-4.138.05-2.294-4.191-2.61-4.269-4.747-.082-2.309,4.361-1.983,4.415-4.105.053-2.3-4.6-2.648-4.675-4.777-.082-2.315,4.767-1.958,4.82-4.073.05-2.311-5-2.686-5.08-4.806-.081-2.324,5.169-1.938,5.223-4.046.053-2.319-5.4-2.724-5.479-4.837-.085-2.332,5.571-1.916,5.625-4.015.049-2.326-5.806-2.761-5.884-4.866-.086-2.339,5.976-1.894,6.029-3.986.05-2.333-6.211-2.8-6.289-4.895-.043-1.336,2.245-1.844,4.109-2.343a48.4,48.4,0,0,0-11.743.33c-1.8.954-4.02,2.02-3.864,3.348.253,2.073,6.439,1.018,6.581,3.359.121,2.1-5.866,3.127-5.592,5.441.253,2.082,6.041,1.094,6.183,3.429.125,2.106-5.468,3.064-5.194,5.371.253,2.088,5.642,1.168,5.781,3.493.124,2.115-5.066,3-4.792,5.3.253,2.1,5.244,1.244,5.383,3.561.128,2.123-4.664,2.944-4.394,5.236.256,2.1,4.845,1.321,4.984,3.631.125,2.13-4.265,2.883-3.995,5.166.256,2.11,4.447,1.4,4.586,3.7.124,2.138-3.867,2.821-3.593,5.1.252,2.12,4.044,1.473,4.183,3.768.125,2.145-3.468,2.763-3.2,5.028Z" fill="#c12943"/>
      <path id="Trazado_10533" data-name="Trazado 10533" d="M2464.644,9032.555c-27.172,17.788-47.414,48.993-62.156,82.714-15.13,34.611-24.287,76.142-29.915,115.038-2.565,17.728-2.12,34.942-.459,52.758l92.53-250.51Z" fill="#fa0"/>
      <path id="Trazado_10534" data-name="Trazado 10534" d="M2496.636,9025.623c-9.6,32.087-19.413,73.729-28.118,106.146-10.95,40.751-31.811,138.134-34.294,190.371-16.218-.292-55.009-2.742-72.273-32.949,45.059-220.569,112.27-267.922,113.547-269.168l21.138,5.6Z" fill="#fdbb45"/>
      <path id="Trazado_10535" data-name="Trazado 10535" d="M2528.159,9021.136c9.246.893,34.639,21.412,40.662,28.415,12.234,14.217,22.113,35.167,28.976,53.346,4.133,10.946,5.35,21.626,5.218,33.473l-74.856-115.233Z" fill="#fa0"/>
      <path id="Trazado_10536" data-name="Trazado 10536" d="M2513,9026.257c41.189,16.14,76.593,254.566,68.695,297.067,13.216-4.215,40.989-23.146,55.308-32.284,4.632-33.1-13.173-181.68-108.268-270.889L2513,9026.257Z" fill="#fdbb45"/>
      <path id="Trazado_10537" data-name="Trazado 10537" d="M2533.229,8970.751c-1.071-8.625-5.009-10.548-4.2-19.356.331-3.627,3.643-13.462.832-16.483-4.411-4.74-11.729-4.4-15.083-5.205-.584,9.339,5.439,9.267,3.6,28.58-.281,2.944,4.386,13.18-1.348,24.861L2513,9026.257c10.445.045,14.227-.626,16.354-1.01,0-14.4-4.86-27.687-4.86-39.255,2.875-4.389,9.741-7.215,8.738-15.241Zm-50.936-20.924c-1.114-4.239-3.832-21.272-3.8-20.773l-18.844,7.832c10.662.856,5.6,34.309,6.478,36.1-.32,3.985,3.138,8.5,4.344,12.048a8.841,8.841,0,0,0,1.27,2.494c3.942,12.711,5.276,27.229-.029,35.756a170.816,170.816,0,0,0,24.92,2.339l-5.261-39.291c-11.256-14.866-6.1-25.174-9.082-36.5Z" fill="#fdbb45"/>
      <path id="Trazado_10538" data-name="Trazado 10538" d="M2475.011,9055.288l-12.1,6.632c-12.2-19.851-22.17-45.64-22.17-51.3l18.4-4.225c6.414,15.465,8.819,33.958,15.867,48.9Z" fill="#fc8b59"/>
      <path id="Trazado_10539" data-name="Trazado 10539" d="M2463.552,9066.627c-.63-2.128-.036-2.9-.637-4.707,0,0,7.869-6.544,8.314-6.6,3.138-.416,9.353,1.374,14.287,2.451.878.479,9.217,3.573,7.524,4.816-1.839,1.345-4.148.026-6.809-.562a4.894,4.894,0,0,0-3.536.22c-1.277.646-.111,2.712,1.017,5,.986,2,1.847,4.228,2.238,5.2.992,2.465,3.86,9.153,4.745,11.644.346.976.5,2.3-1.06,2.451-1.351.132-2.924-4.151-3.475-5.105-.84-1.447-3.166-6.679-4.12-6.923.48,3.277,6.4,14.142,6.3,16.27-.068,1.455-1.914,1.151-2.722-.025-1.5-2.177-5.784-13.177-7.648-14.454l-.15-.07c.943,4.77,5.483,13.563,5.073,14.616-.658,1.677-1.9.891-2.906-.614-2.067-3.093-4.3-10.69-7.239-13.224,0,0-.121,1.3,4,9.933.878,1.843-.808,2.489-2.081.9a144.884,144.884,0,0,1-8.165-15c-.761-1.737-2.351-4.2-2.949-6.214Z" fill="#fc8b59"/>
      <path id="Trazado_10540" data-name="Trazado 10540" d="M2459.653,8936.886c-2.487,2.229-7.791,7.953-11,20.316-2.284,8.834-4.543,23.9-6.1,35.569-1.153,8.623,15.617,7.007,18.5,6.609,2.529-11.59,4.2-15.466,5.831-27.555,4.738-4.738,7.8-21.115,3.031-29.779a10.351,10.351,0,0,0-10.26-5.161Z" fill="#fdbb45"/>
      <path id="Trazado_10541" data-name="Trazado 10541" d="M2434.082,9012.625c-1.067,3.048-7.912,29.25-3.867,35.384,2.362.009,4.8.688,7.122.632,3.337-.075,1.917-2.359,2.946-4.445,1.707-3.454,3.835-.612,6.133.164,3.073,1.037,5.108-.943,5.937-3.321,1.025-2.943,1.615-3.787,5.1-2.373.63-2.4,1.59-3.443,4.315-3.28,2.37.142,4.042.036,5.859-1.453-.594-2.156-2.259-11.3-2.767-13.792-1-4.943-2.192-9.848-5.027-14.214-1.01-1.554-24.924,4.313-25.756,6.7Z" fill="#fcf9eb"/>
      <path id="Trazado_10542" data-name="Trazado 10542" d="M2461.051,8998.191a86.961,86.961,0,0,0,.4,10.618c-2.854-.986-5.8-.225-8.36,1.192-2.651,1.465-3.981,1.45-6.92,1.068-8.531-1.111-3.792,9.92-7.88,13.874-2.412,2.328-6.567,2.738-8.068,6.051-1.039,2.3.829,5.685-.811,7.629-1.729,2.049-4.92.552-5.382-1.731-.58-2.857,2.33-5.59,1.284-8.436-.946-2.572-4.162-2.9-4.372-5.944-.235-3.39.864-5.727-.477-9.171,3.387-2.146,6.8-3.655,10.064-6.223,3.59-2.827,5.468-6.671,8.292-10.154a39.221,39.221,0,0,1,3.736-4.193l18.5,5.42Z" fill="#fa0"/>
      <path id="Trazado_10543" data-name="Trazado 10543" d="M2513.083,8874.711a4.352,4.352,0,0,1-1.153-2.567c-.135-1.015.2-2.1-.993-2.472.214-1.348-.658-1-1.067-1.737-.448-.811-.4-1.857-1.1-2.536-1.249-1.221-3.077.019-4.176-1.027-.769-.733-1.249-3.135-1.8-4.165-1.1-2.032-1.391-1.516-3.255-1.511-1.206,0-1.274-.605-2.17-1a5.972,5.972,0,0,0-2.359-.355l-.22.055-.221-.055a5.983,5.983,0,0,0-2.362.355c-.9.393-.964,1-2.167,1-1.867,0-2.159-.521-3.255,1.511-.558,1.03-1.035,3.432-1.8,4.165-1.1,1.046-2.932-.193-4.18,1.027-.694.679-.651,1.726-1.1,2.536-.405.736-1.28.39-1.063,1.737-1.192.368-.861,1.457-1,2.472a4.328,4.328,0,0,1-1.149,2.567c-1.868,2.821-1.356,9.255-.082,12.418.818,2.034,2.618,2.243,2.849,4.52a9.419,9.419,0,0,0,1.733,4.843l13.8.584,13.795-.584a9.4,9.4,0,0,0,1.729-4.843c.235-2.276,2.035-2.485,2.854-4.52,1.269-3.163,1.782-9.6-.082-12.418Z" fill="#7a2222"/>
      <path id="Trazado_10544" data-name="Trazado 10544" d="M2514.185,8884.725c-.782-1.1-1.028-1.13-1.234-2.567-.146-1.016.21-2.1-1.067-2.473.231-1.348-.705-1-1.142-1.736-.48-.812-.434-1.858-1.178-2.536-1.341-1.22-3.3.019-4.482-1.027-.825-.732-1.338-3.135-1.935-4.165-1.174-2.031-1.487-1.516-3.49-1.511-1.288,0-1.363-.6-2.327-1a6.779,6.779,0,0,0-2.529-.354c-.078.017-.157.035-.235.054-.078-.019-.16-.037-.238-.054a6.779,6.779,0,0,0-2.53.354c-.964.395-1.035,1-2.323,1-2,0-2.319-.521-3.493,1.511-.6,1.03-1.11,3.433-1.935,4.165-1.181,1.046-3.142-.192-4.479,1.027-.747.678-.7,1.725-1.178,2.536-.437.735-1.376.389-1.142,1.736-1.277.368-.925,1.457-1.071,2.473-.2,1.438-.451,1.47-1.23,2.567-2,2.819-1.452,9.254-.089,12.417.878,2.033,2.806,2.245,3.056,4.52.256,2.32.654,2.884,1.86,4.844l14.792.583,14.792-.583c1.206-1.96,1.6-2.523,1.861-4.844.245-2.274,2.177-2.486,3.055-4.52,1.363-3.163,1.914-9.6-.089-12.417Z" fill="#8d2e2a"/>
      <path id="Trazado_10545" data-name="Trazado 10545" d="M2484.374,8907.537c-2.889,1.978-6.606,2.9-6.275,7.272a6.259,6.259,0,0,0,3.208,4.835c1.6,1.016,4.1,2.076,2.949,4.487-.932,1.942-3.778,1.772-4.656,3.891-1.228,2.959,1.622,2.42,3.539,2.564,2.405.179,4.44,1.748,2.1,3.879-1.58,1.438-4.881,1.122-5.56,3.571-1.142,4.119,5,2.058,6.812,2.571,3.735,1.061.448,4.654-1.757,5.37,4-.393,7.68-5.612,2.888-7.721-2.287-1-2.266-1.2.221-2.611,1.242-.7,3.408-1.488,2.725-3.4-.936-2.632-8.727-1.4-6.115-5.62,1.988-3.215,7.972-4.312,2.017-7.758-1.6-.924-3.575-1.422-3.024-3.763.466-1.964,2.511-2.11,3.967-3.087l-3.042-4.482Z" fill="#8d2e2a"/>
      <path id="Trazado_10546" data-name="Trazado 10546" d="M2507.668,8903.032c4.472-3.89,3.028,3.984,1.975,6.035-.388.755-1.242,2.237-2.217,2.418l.242-8.453Z" fill="#f6693b"/>
      <path id="Trazado_10547" data-name="Trazado 10547" d="M2482.158,8903.032c-4.472-3.89-3.028,3.984-1.975,6.035.384.755,1.388,2.386,2.362,2.564l-.387-8.6Z" fill="#f6693b"/>
      <path id="Trazado_10548" data-name="Trazado 10548" d="M2508.554,8905.1c0-5.151.281-13.328-1.935-16.735-2.579-3.963-7.485-4.324-11.708-4.325s-9.125.362-11.7,4.325c-2.216,3.407-2.284,11.595-1.932,16.735.442,6.56,2.647,11.063,7.652,15.126a9.5,9.5,0,0,0,11.971,0c5.006-4.063,7.656-8.566,7.656-15.126Z" fill="#fc8b59"/>
      <path id="Trazado_10549" data-name="Trazado 10549" d="M2507.668,8903.032c.978-.5,1.612-1.205,2.615-.776,2.654-10.631-1.448-16.634-3.664-18.851-3.344-3.345-7.485-5.5-11.708-5.506s-8.36,2.161-11.7,5.506c-2.814,2.811-5.969,10.12-3.6,18.784a3.4,3.4,0,0,1,2.555.843c-1.164-2.4-.072-12.779,4.888-13.1,2.323-2.321,6.652-2.533,8.584-.281,2.533-3.447,5.556-3.026,7.036,1.9,3.939-.845,6.4,6.543,5,11.478Z" fill="#8d2e2a"/>
      <path id="Trazado_10550" data-name="Trazado 10550" d="M2492.585,8898.44c-.893-1.277-4.28-1.66-5.764-1.135-.533.191-.953.191-1.01.848,2.857-.842,5.351.97,6.709.379l.065-.092Z" fill="#7a2222"/>
      <path id="Trazado_10551" data-name="Trazado 10551" d="M2491.172,8902.548a1.326,1.326,0,0,1-2.547.516,10.081,10.081,0,0,0-1.4-.947,9.452,9.452,0,0,0,1.5-.266,1.325,1.325,0,0,1,2.454.7Z" fill="#7a2222"/>
      <path id="Trazado_10552" data-name="Trazado 10552" d="M2498.07,8898.44c.893-1.277,4.283-1.66,5.767-1.135.53.191.95.191,1.007.848-2.857-.842-5.351.97-6.706.379l-.068-.092Z" fill="#7a2222"/>
      <path id="Trazado_10553" data-name="Trazado 10553" d="M2499.482,8902.548a1.328,1.328,0,0,0,2.551.516,10.081,10.081,0,0,1,1.4-.947,9.48,9.48,0,0,1-1.5-.266,1.326,1.326,0,0,0-2.455.7Z" fill="#7a2222"/>
      <path id="Trazado_10554" data-name="Trazado 10554" d="M2491.1,8906.349c0,.955-1.238,1.73-2.768,1.73s-2.767-.775-2.767-1.73,1.238-1.729,2.767-1.729,2.768.772,2.768,1.729Z" fill="#f26a3b"/>
      <path id="Trazado_10555" data-name="Trazado 10555" d="M2499.578,8906.349c0,.955,1.238,1.73,2.765,1.73s2.767-.775,2.767-1.73-1.238-1.729-2.767-1.729-2.765.772-2.765,1.729Z" fill="#f26a3b"/>
      <path id="Trazado_10556" data-name="Trazado 10556" d="M2506.267,8873.377c-.84-2.724,1.177-4.289,2.031-4.271.583.01.715.884,1.362.6-.057.85.214.786.409,1.213.673,1.451-1.49,2.913-3.6,2.565l-.206-.111Z" fill="#fdd8ce"/>
      <path id="Trazado_10557" data-name="Trazado 10557" d="M2506.078,8872.835c-.057-.262-.128-1,.189-1.2a.633.633,0,0,0,.152.551c.21-.237.445-.485.68-.708a3.7,3.7,0,0,0-.391,1.188,2.275,2.275,0,0,0,1.017-.611,2.545,2.545,0,0,1-1.01,1.084,1.956,1.956,0,0,0,1.074.189c.018-.012.018-.012,0,0a1.473,1.473,0,0,1-1.54.055,3.315,3.315,0,0,1-.171-.55Z" fill="#f6eec1"/>
      <path id="Trazado_10558" data-name="Trazado 10558" d="M2506.348,8873.819c2.106-1.918,4.383-.759,4.732.021.238.531-.5,1.022.032,1.49-.79.31-.619.527-.922.889-1.028,1.226-3.272-.108-3.852-2.163l.01-.236Z" fill="#fddfd6"/>
      <path id="Trazado_10559" data-name="Trazado 10559" d="M2506.765,8873.421c.209-.164.85-.545,1.156-.342a.652.652,0,0,0-.434.376c.306.089.629.2.932.312a3.79,3.79,0,0,0-1.242.151,2.27,2.27,0,0,0,.986.663,2.581,2.581,0,0,1-1.413-.454,2.008,2.008,0,0,0,.288,1.053c.018.013.018.013,0,0a1.468,1.468,0,0,1-.7-1.367,2.926,2.926,0,0,1,.427-.391Z" fill="#f6eec1"/>
      <path id="Trazado_10560" data-name="Trazado 10560" d="M2506.1,8873.9c2.511,1.344,2.177,3.876,1.562,4.465-.424.4-1.132-.125-1.4.529-.559-.642-.7-.406-1.146-.571-1.5-.56-.988-3.12.751-4.354l.228-.068Z" fill="#fccbbe"/>
      <path id="Trazado_10561" data-name="Trazado 10561" d="M2506.608,8874.155c.224.146.8.623.708.978a.644.644,0,0,0-.5-.281c.018.317.025.658.018.981a3.787,3.787,0,0,0-.559-1.12,2.286,2.286,0,0,0-.291,1.152,2.527,2.527,0,0,1-.047-1.484,1.96,1.96,0,0,0-.9.626h0a1.473,1.473,0,0,1,1.053-1.122,3.141,3.141,0,0,1,.512.271Z" fill="#f6eec1"/>
      <path id="Trazado_10562" data-name="Trazado 10562" d="M2506.032,8873.435c-.7,2.765-3.237,3.05-3.96,2.592-.491-.312-.149-1.126-.85-1.225.491-.7.228-.783.281-1.251.185-1.588,2.789-1.712,4.408-.319l.121.2Z" fill="#fdd8ce"/>
      <path id="Trazado_10563" data-name="Trazado 10563" d="M2505.907,8873.993c-.085.255-.412.928-.779.927a.643.643,0,0,0,.153-.553c-.3.093-.633.184-.946.254a3.842,3.842,0,0,0,.95-.812,2.268,2.268,0,0,0-1.185-.008,2.546,2.546,0,0,1,1.427-.4,1.979,1.979,0,0,0-.822-.721c-.018,0-.018,0,0,0a1.469,1.469,0,0,1,1.341.753,2.967,2.967,0,0,1-.139.559Z" fill="#f6eec1"/>
      <path id="Trazado_10564" data-name="Trazado 10564" d="M2505.975,8873.447c-2.85-.068-3.7-2.478-3.408-3.281.192-.549,1.063-.4,1-1.1.79.322.811.046,1.281-.007,1.59-.176,2.291,2.339,1.295,4.227l-.171.163Z" fill="#fccbbe"/>
      <path id="Trazado_10565" data-name="Trazado 10565" d="M2505.4,8873.449c-.267-.028-1-.194-1.078-.552a.648.648,0,0,0,.573.024c-.157-.273-.32-.576-.455-.867a3.69,3.69,0,0,0,1,.748,2.35,2.35,0,0,0-.256-1.16,2.576,2.576,0,0,1,.708,1.3,1.965,1.965,0,0,0,.515-.961c0-.02,0-.021,0,0a1.475,1.475,0,0,1-.434,1.478,3.116,3.116,0,0,1-.576-.013Z" fill="#f6eec1"/>
      <path id="Trazado_10566" data-name="Trazado 10566" d="M2480.82,8875.6a1,1,0,0,1,.651-1.369c.185,0,.231.282.438.193-.018.272.067.251.131.389.217.466-.476.934-1.152.822l-.068-.035Z" fill="#fdd8ce"/>
      <path id="Trazado_10567" data-name="Trazado 10567" d="M2480.76,8875.429c-.018-.083-.043-.32.06-.383a.205.205,0,0,0,.05.178c.067-.075.142-.155.217-.229a1.252,1.252,0,0,0-.125.382.762.762,0,0,0,.328-.2.831.831,0,0,1-.324.348.613.613,0,0,0,.341.061h0a.474.474,0,0,1-.494.017,1.15,1.15,0,0,1-.053-.177Z" fill="#f6eec1"/>
      <path id="Trazado_10568" data-name="Trazado 10568" d="M2480.848,8875.745a1,1,0,0,1,1.516.007c.075.17-.16.328.011.479-.253.1-.2.168-.3.284-.327.394-1.049-.034-1.234-.693l0-.076Z" fill="#fddfd6"/>
      <path id="Trazado_10569" data-name="Trazado 10569" d="M2480.98,8875.618c.068-.052.274-.175.37-.11a.214.214,0,0,0-.139.121c.1.029.2.063.3.1a1.225,1.225,0,0,0-.4.049.747.747,0,0,0,.316.212.816.816,0,0,1-.451-.146.658.658,0,0,0,.092.338c.007,0,.007,0,0,0a.476.476,0,0,1-.228-.437.931.931,0,0,1,.139-.125Z" fill="#f6eec1"/>
      <path id="Trazado_10570" data-name="Trazado 10570" d="M2480.767,8875.771a1,1,0,0,1,.5,1.432c-.139.129-.363-.04-.448.17-.181-.206-.228-.131-.37-.184-.48-.18-.317-1,.242-1.4l.075-.021Z" fill="#fccbbe"/>
      <path id="Trazado_10571" data-name="Trazado 10571" d="M2480.93,8875.853c.071.048.256.2.228.314a.206.206,0,0,0-.16-.091c0,.1.007.212,0,.313a1.108,1.108,0,0,0-.177-.357.744.744,0,0,0-.1.369.828.828,0,0,1-.01-.477.607.607,0,0,0-.288.2h0a.467.467,0,0,1,.338-.361,1.1,1.1,0,0,1,.163.087Z" fill="#f6eec1"/>
      <path id="Trazado_10572" data-name="Trazado 10572" d="M2480.745,8875.623a1,1,0,0,1-1.266.831c-.16-.1-.05-.362-.274-.395.156-.223.071-.251.089-.4.057-.51.893-.55,1.416-.1l.035.066Z" fill="#fdd8ce"/>
      <path id="Trazado_10573" data-name="Trazado 10573" d="M2480.706,8875.8c-.028.081-.135.3-.249.3a.193.193,0,0,0,.046-.177c-.1.03-.2.06-.3.081a1.291,1.291,0,0,0,.306-.26.721.721,0,0,0-.381,0,.831.831,0,0,1,.456-.128.646.646,0,0,0-.26-.231c-.011,0-.011,0,0,0a.467.467,0,0,1,.427.242.833.833,0,0,1-.043.178Z" fill="#f6eec1"/>
      <path id="Trazado_10574" data-name="Trazado 10574" d="M2480.727,8875.626a1,1,0,0,1-1.092-1.052c.061-.177.342-.128.321-.354.252.1.259.015.409,0,.512-.057.736.749.416,1.355l-.054.052Z" fill="#fccbbe"/>
      <path id="Trazado_10575" data-name="Trazado 10575" d="M2480.543,8875.627c-.086-.009-.317-.062-.346-.177a.212.212,0,0,0,.185.008c-.049-.088-.1-.185-.149-.278a1.25,1.25,0,0,0,.324.239.759.759,0,0,0-.082-.371.836.836,0,0,1,.228.417.607.607,0,0,0,.163-.307c0-.006,0-.007,0,0a.461.461,0,0,1-.139.473,1.076,1.076,0,0,1-.184,0Z" fill="#f6eec1"/>
      <path id="Trazado_10576" data-name="Trazado 10576" d="M2510.205,8878.831a1,1,0,0,1,.651-1.37c.188,0,.227.284.437.2-.018.271.068.252.132.389.217.465-.48.934-1.153.821l-.067-.035Z" fill="#fdd8ce"/>
      <path id="Trazado_10577" data-name="Trazado 10577" d="M2510.144,8878.657c-.018-.084-.043-.323.061-.383a.214.214,0,0,0,.046.178c.071-.077.146-.157.221-.229a1.138,1.138,0,0,0-.125.383.751.751,0,0,0,.327-.2.877.877,0,0,1-.323.348.62.62,0,0,0,.341.062s0,0,0,0a.469.469,0,0,1-.491.018,1.043,1.043,0,0,1-.057-.177Z" fill="#f6eec1"/>
      <path id="Trazado_10578" data-name="Trazado 10578" d="M2510.23,8878.973a1,1,0,0,1,1.519.006c.074.172-.16.327.01.479-.252.1-.2.17-.295.286-.331.392-1.049-.036-1.238-.694l0-.076Z" fill="#fddfd6"/>
      <path id="Trazado_10579" data-name="Trazado 10579" d="M2510.361,8878.845c.071-.053.278-.175.374-.109a.212.212,0,0,0-.139.121c.1.027.2.063.3.1a1.235,1.235,0,0,0-.4.049.745.745,0,0,0,.317.213.827.827,0,0,1-.452-.146.6.6,0,0,0,.093.338h0a.477.477,0,0,1-.228-.44,1.551,1.551,0,0,1,.135-.124Z" fill="#f6eec1"/>
      <path id="Trazado_10580" data-name="Trazado 10580" d="M2510.148,8879a1,1,0,0,1,.5,1.432c-.135.129-.363-.04-.448.17-.174-.207-.224-.13-.366-.183-.481-.18-.317-1,.242-1.4l.071-.021Z" fill="#fccbbe"/>
      <path id="Trazado_10581" data-name="Trazado 10581" d="M2510.311,8879.08c.075.047.26.2.232.313a.21.21,0,0,0-.16-.09c.007.1.007.212.007.315a1.251,1.251,0,0,0-.182-.36.758.758,0,0,0-.1.37.878.878,0,0,1-.014-.476.65.65,0,0,0-.288.2c0,.007,0,.008,0,0a.472.472,0,0,1,.338-.36,1,1,0,0,1,.16.087Z" fill="#f6eec1"/>
      <path id="Trazado_10582" data-name="Trazado 10582" d="M2510.134,8878.849a1.008,1.008,0,0,1-1.278.831c-.153-.1-.046-.359-.27-.392.16-.224.075-.252.093-.4.056-.51.892-.55,1.412-.1l.043.064Z" fill="#fdd8ce"/>
      <path id="Trazado_10583" data-name="Trazado 10583" d="M2510.091,8879.029c-.029.081-.132.3-.253.3a.189.189,0,0,0,.05-.177c-.1.029-.2.059-.3.082a1.132,1.132,0,0,0,.3-.262.726.726,0,0,0-.377,0,.8.8,0,0,1,.455-.127.631.631,0,0,0-.263-.23h0a.48.48,0,0,1,.434.24,1.152,1.152,0,0,1-.046.181Z" fill="#f6eec1"/>
      <path id="Trazado_10584" data-name="Trazado 10584" d="M2510.112,8878.853a1,1,0,0,1-1.092-1.052c.06-.176.338-.127.32-.353.253.1.26.014.413,0,.509-.057.733.75.413,1.354l-.054.052Z" fill="#fccbbe"/>
      <path id="Trazado_10585" data-name="Trazado 10585" d="M2509.927,8878.854c-.085-.009-.32-.062-.345-.177a.208.208,0,0,0,.185.008,2.828,2.828,0,0,1-.146-.277,1.115,1.115,0,0,0,.32.239.745.745,0,0,0-.081-.371.805.805,0,0,1,.224.418.621.621,0,0,0,.167-.31h0a.472.472,0,0,1-.139.475,1.045,1.045,0,0,1-.185,0Z" fill="#f6eec1"/>
    </g>
    <g id="Grupo_12202" data-name="Grupo 12202">
      <path id="Trazado_10586" data-name="Trazado 10586" d="M2700.322,9088.187h-78.478v93.458h78.478v-93.458Z" fill="#36272f"/>
      <path id="Trazado_10587" data-name="Trazado 10587" d="M2672.058,8903.526c0,11.273,6.809,20.413,15.208,20.413s15.2-9.14,15.2-20.413-6.809-20.413-15.2-20.413-15.208,9.14-15.208,20.413Z" fill="#8d2e2a"/>
      <path id="Trazado_10588" data-name="Trazado 10588" d="M2693.854,8911.071h-30.228l2.433-19.234h25.361l2.433,19.234Z" fill="#f6693b"/>
      <path id="Trazado_10589" data-name="Trazado 10589" d="M2692.058,8884.205c4.443-4.057,3.045,4.2,2.006,6.35-.38.789-1.223,2.342-2.2,2.524l.192-8.874Z" fill="#f6693b"/>
      <path id="Trazado_10590" data-name="Trazado 10590" d="M2666.039,8884.205c-4.44-4.057-3.049,4.2-2.01,6.35.384.789,1.223,2.342,2.2,2.524l-.188-8.874Z" fill="#f6693b"/>
      <path id="Trazado_10591" data-name="Trazado 10591" d="M2692.151,8887.214c-.406-5.125.786-13.3-1.427-16.691-2.569-3.955-7.467-4.318-11.672-4.318s-9.107.363-11.683,4.318c-2.209,3.395-1.017,11.566-1.426,16.691-.513,6.544,1.3,11.04,6.289,15.092,1.477,1.2,4.888,1.918,6.82,1.948,1.921-.03,5.336-.753,6.809-1.948,4.995-4.052,6.8-8.548,6.29-15.092Z" fill="#fc8b59"/>
      <path id="Trazado_10592" data-name="Trazado 10592" d="M2681.514,8875.946c2.07,2.128,5.809.905,5.681,3.214-1.1-1.021-2.508.8-5.55-1.152l-.131-2.062Z" fill="#8d2e2a"/>
      <path id="Trazado_10593" data-name="Trazado 10593" d="M2677.679,8875.267c-2.288-.044-6.126,1.585-5.995,3.894,1.092-1.021,4.586-2.244,6.126-1.675l-.131-2.219Z" fill="#8d2e2a"/>
      <path id="Trazado_10594" data-name="Trazado 10594" d="M2676.683,8881.377a1.066,1.066,0,1,1-1.068-1.068,1.067,1.067,0,0,1,1.068,1.068Z" fill="#8d2e2a"/>
      <path id="Trazado_10595" data-name="Trazado 10595" d="M2682.2,8881.377a1.065,1.065,0,1,0,1.063-1.068,1.063,1.063,0,0,0-1.063,1.068Z" fill="#8d2e2a"/>
      <path id="Trazado_10596" data-name="Trazado 10596" d="M2683.8,8884.335c0,.938,1.22,1.7,2.721,1.7s2.718-.763,2.718-1.7-1.217-1.7-2.718-1.7-2.721.761-2.721,1.7Z" fill="#f26a3b"/>
      <path id="Trazado_10597" data-name="Trazado 10597" d="M2675.473,8884.335c0,.938-1.217,1.7-2.718,1.7s-2.718-.763-2.718-1.7,1.217-1.7,2.718-1.7,2.718.761,2.718,1.7Z" fill="#f26a3b"/>
      <path id="Trazado_10598" data-name="Trazado 10598" d="M2677.049,8859.216c-5.987-1.416-10.331,1.216-13.486,5.171a44.9,44.9,0,0,1-5.892,5.476c-5.329,4.364-2.422,13.165,2.427,14.858,6.521,2.277,6.488-3.27,8.452-6.53a20.988,20.988,0,0,1,4.685-5.531,10.619,10.619,0,0,0,3.465-6.834l.349-6.609Z" fill="#8d2e2a"/>
      <path id="Trazado_10599" data-name="Trazado 10599" d="M2676.256,8866.24c.377,2.3,1.1,3.967,3.159,5.178,2.077,1.22,7.424,1.763,8.829,3.893,2.188,3.314-.22,6.472,3.8,9.667,4.493,3.576,9.071-2.92,9.9-4.881,1.533-3.64-6.2-11.358-6.938-13.966-1.96-6.942-11.711-9.461-16.182-8.246a7.08,7.08,0,0,0-1.822,1.1l-.743,7.259Z" fill="#8d2e2a"/>
      <path id="Trazado_10600" data-name="Trazado 10600" d="M2665.174,8873.085a6.274,6.274,0,1,1-8.054-3.729,6.276,6.276,0,0,1,8.054,3.729Z" fill="#9f4a20"/>
      <path id="Trazado_10601" data-name="Trazado 10601" d="M2663.581,8874.632a3.4,3.4,0,1,1-4.366-2.021,3.406,3.406,0,0,1,4.366,2.021Z" fill="#913000"/>
      <path id="Trazado_10602" data-name="Trazado 10602" d="M2665.928,8881.12a6.273,6.273,0,1,1-8.05-3.73,6.275,6.275,0,0,1,8.05,3.73Z" fill="#9f4a20"/>
      <path id="Trazado_10603" data-name="Trazado 10603" d="M2664.335,8882.669a3.4,3.4,0,1,1-4.365-2.021,3.4,3.4,0,0,1,4.365,2.021Z" fill="#913000"/>
      <path id="Trazado_10604" data-name="Trazado 10604" d="M2692.93,8873.085a6.273,6.273,0,1,0,8.05-3.729,6.271,6.271,0,0,0-8.05,3.729Z" fill="#9f4a20"/>
      <path id="Trazado_10605" data-name="Trazado 10605" d="M2694.523,8874.632a3.4,3.4,0,1,0,4.365-2.021,3.4,3.4,0,0,0-4.365,2.021Z" fill="#913000"/>
      <path id="Trazado_10606" data-name="Trazado 10606" d="M2692.175,8881.12a6.274,6.274,0,1,0,8.051-3.73,6.273,6.273,0,0,0-8.051,3.73Z" fill="#9f4a20"/>
      <path id="Trazado_10607" data-name="Trazado 10607" d="M2693.765,8882.669a3.4,3.4,0,1,0,4.369-2.021,3.405,3.405,0,0,0-4.369,2.021Z" fill="#913000"/>
      <path id="Trazado_10608" data-name="Trazado 10608" d="M2653.082,9302.645c-5.5,3.06-10.669,3.582-12,5.127-3.525,4.079,11.014,7.848,11.014,7.848s11.7-3.006,40.342-10.972c1.779-3.038-4.635-9.88-4.635-9.88l-9.52,4.925-10.961-6.983a124.03,124.03,0,0,1-14.237,9.936Z" fill="#36272f"/>
      <path id="Trazado_10609" data-name="Trazado 10609" d="M2687.284,9297.383l-2.9-16.356s5.905-89.432-2.469-93.494c-19.868-9.638-26.738-17.2-27.794-8.268-4.433,37.436,7.086,56.361,10.238,75.027,1.676,9.953,4.856,31.508,4.856,31.508l18.065,11.583Z" fill="#f8f0e2"/>
      <path id="Trazado_10610" data-name="Trazado 10610" d="M2690,9294.647l-11.722,5.045-14.546-7.226,5.486-6.667,20.783,8.848Z" fill="#fa0"/>
      <path id="Trazado_10611" data-name="Trazado 10611" d="M2687.554,9294.238c-2.166,1.206-3.749,2.081-4.952,5.308-.249.655-.476-4.07-.69-3.4-1.419,4.384-2.664,17.613-2.423,18.656,1.633,7.079,9.154,9.651,9.154,9.651s9.932-2.722,10.476-5.987c1.779-3.038,1.093-11.978,1.093-11.978l-2.146-12.762-.252,6.5s-3.906-9.526-10.26-5.987Z" fill="#4b3642"/>
      <path id="Trazado_10612" data-name="Trazado 10612" d="M2683.509,9291.883l.253-9.633s-10.221-90.655-1.843-94.718c19.869-9.638,32.483-18.129,34.4-9.338,7.489,34.383-12.529,103.3-12.529,103.3l-2.718,13.675-17.56-3.284Z" fill="#fcf9eb"/>
      <path id="Trazado_10613" data-name="Trazado 10613" d="M2698.511,9301.613a11.5,11.5,0,0,0-17.193,0l-4.707-5.1a17.8,17.8,0,0,1,26.6,0q-2.348,2.55-4.7,5.1Z" fill="#fdbb45"/>
      <path id="Trazado_10614" data-name="Trazado 10614" d="M2695.388,9048.972l-58.99-7.593s-5.913,35.327-3.746,69.9c2.351,37.527,5.094,50.146,13.429,63.725,7.973,12.988,38.713,21.847,49.225,3.052,9.146-16.346.082-129.079.082-129.079Z" fill="#91619b"/>
      <path id="Trazado_10615" data-name="Trazado 10615" d="M2665.288,9079.385c-13.789-4.1-27.222-16.988-27.222-16.988l25.7-12.228,58.994-7.594s10.3,36.938,1.85,70.527c-9.445,37.524-2.594,48.507-9,63.092-3.935,8.95-28.474,25.251-38.99,3.053-5.368-11.338-9.31-65.4-11.327-99.862Z" fill="#a075a7"/>
      <path id="Trazado_10616" data-name="Trazado 10616" d="M2724.94,9055.872l-20.011,27.159-45.272-26.445-26.8,17.908,14.892-148.707,34.757-15.969,38.146,15.969,4.291,130.085Z" fill="#a3b771"/>
      <path id="Trazado_10617" data-name="Trazado 10617" d="M2664.936,8900.721a31.755,31.755,0,0,1,10.533,10.319v1.683l-14.51.973-2.483-1.941,6.46-11.033Z" fill="#fff"/>
      <path id="Trazado_10618" data-name="Trazado 10618" d="M2692.51,8898.478s-12.725,6.112-17.041,13.056v1.189l14.508.973,9.808-7.8-7.275-7.413Z" fill="#fff"/>
      <path id="Trazado_10619" data-name="Trazado 10619" d="M2660.489,8947.528l.722,2.794h0l-5.578,31.511,10.2,1.17,4.792-33.746-3.9-.578-6.233-1.15Z" fill="#f5f3f3"/>
      <path id="Trazado_10620" data-name="Trazado 10620" d="M2662.791,8983.765h7.833l2.956-34.508-4.18-.181-6.61,34.688Z" fill="#fff"/>
      <path id="Trazado_10621" data-name="Trazado 10621" d="M2686.665,8947.528l-.722,2.794-5,.732,8.8,30.778-11.373,1.17-1.843-33.746,3.9-.578,6.233-1.15Z" fill="#fff"/>
      <path id="Trazado_10622" data-name="Trazado 10622" d="M2678.465,8983.765h-7.841l2.956-34.508,4.173-.181.711,34.688Z" fill="#f5f3f3"/>
      <path id="Trazado_10623" data-name="Trazado 10623" d="M2660.948,8929.43l.722,2.794h0l-5.578,31.511,10.192,1.17,4.8-33.746-3.9-.578-6.233-1.15Z" fill="#fff"/>
      <path id="Trazado_10624" data-name="Trazado 10624" d="M2663.246,8965.666h7.837l2.953-34.508-4.177-.181-6.613,34.688Z" fill="#f5f3f3"/>
      <path id="Trazado_10625" data-name="Trazado 10625" d="M2687.124,8929.43l-.722,2.794-5,.733,8.8,30.777-11.373,1.17-1.846-33.746,3.9-.578,6.236-1.15Z" fill="#f5f3f3"/>
      <path id="Trazado_10626" data-name="Trazado 10626" d="M2678.92,8965.666h-7.837l2.953-34.508,4.176-.181.708,34.688Z" fill="#fff"/>
      <path id="Trazado_10627" data-name="Trazado 10627" d="M2666.394,8908.96l-2.575,2.794h0l-5.578,31.511,10.2,1.17,4.8-33.745-3.9-.578-2.935-1.151Z" fill="#fff"/>
      <path id="Trazado_10628" data-name="Trazado 10628" d="M2665.395,8945.2h7.837l2.953-34.507-4.177-.183-6.613,34.689Z" fill="#f5f3f3"/>
      <path id="Trazado_10629" data-name="Trazado 10629" d="M2689.272,8908.96l-.722,2.794-5,.732,8.8,30.778-11.373,1.17-1.846-33.745,3.9-.578,6.236-1.151Z" fill="#f5f3f3"/>
      <path id="Trazado_10630" data-name="Trazado 10630" d="M2681.069,8945.2h-7.837l2.953-34.507,4.176-.183.708,34.689Z" fill="#fff"/>
      <path id="Trazado_10631" data-name="Trazado 10631" d="M2626.5,9017.293l-52.487-5.3,54.177-87.92,3.436,74.641-5.126,18.582Z" fill="#36272f"/>
      <path id="Trazado_10632" data-name="Trazado 10632" d="M2628.191,8924.071s.8,74.755,2.216,92.472c2.348,29.3-22.832,95.9-8.563,165.1,6.845-18.779,29.171-227.941,44.543-261.113-.911-2.472-14.575-7.085-14.575-7.085l-23.621,10.625Z" fill="#4b3642"/>
      <path id="Trazado_10633" data-name="Trazado 10633" d="M2738.141,8921.478s7.731,70.389-14.575,92.7c-2.347,29.3,30.182,85.428,28.126,148.922-.374,11.466-28.538,23.313-39.954,18.317-4.28-40.22-3.639-102.551-15.721-124.016-17.342-30.806-30.291-103.605-18.072-136.776.911-2.471,28.346-14.112,28.346-14.112l31.85,14.969Z" fill="#4b3642"/>
      <path id="Trazado_10634" data-name="Trazado 10634" d="M2738.141,8921.478c-10.658,8.176-16.175,16.972-15.421,33.32.779,16.966,3.92,18.075,2.643,33.941-.626,7.771-4.415,16.8-5.425,24.844,8.837-10.5,11.512-19.481,16.46-38.229l1.743-53.876Z" fill="#36272f"/>
      <path id="Trazado_10635" data-name="Trazado 10635" d="M2659.208,8900.861s3.316.5,7.631,7.443l-.452,12.227-15.8-6.535,8.623-13.135Z" fill="#36272f"/>
      <path id="Trazado_10636" data-name="Trazado 10636" d="M2699.8,8897.125s-8.859,2.447-14.828,7.736l-7.03,15.76,28.346-14.112-6.488-9.384Z" fill="#36272f"/>
      <path id="Trazado_10637" data-name="Trazado 10637" d="M2607.155,9006.058l4.38-2.152,16.5-7.466,2.767-4.595s4.906,3.095.577,9.484a35.676,35.676,0,0,1-4.4,3.843l16.286,3.743c1.309.558,1.818,2.341,1.127,3.981a3.109,3.109,0,0,1-3.119,2.106,3.325,3.325,0,0,1,.551,4.114,3.5,3.5,0,0,1-2.967,2.066c1.235.769,1.509,2.758.609,4.548-.943,1.861-2.807,2.8-4.17,2.106l-.751-.387a3.079,3.079,0,0,1-.117,2.729,2.939,2.939,0,0,1-2.44,1.726v0l-12.142,2.37-10.537-2.289-2.387-.746c-21.31,1.646.227-25.187.227-25.187Z" fill="#fc8b59"/>
      <path id="Trazado_10638" data-name="Trazado 10638" d="M2602.919,8998.293l4.236,7.765-.227,25.187c-21.31,1.646-33.526-11.57-32.914-19.254,8.517-21.649,28.905-21.219,28.905-13.7Z" fill="#4b3642"/>
      <path id="Trazado_10639" data-name="Trazado 10639" d="M2592.751,9032.064l23.721,3.893.477-8.683-24.589-4.421.391,9.211Z" fill="#f5f3f3"/>
      <path id="Trazado_10640" data-name="Trazado 10640" d="M2592.275,9020.862l24.856,3.073-.181,3.339,1.1.2-.391-9.2-25.55-1.477.171,4.07Z" fill="#f5f3f3"/>
      <path id="Trazado_10641" data-name="Trazado 10641" d="M2592.275,9020.862l.085,1.991,24.589,4.421.181-3.339-24.856-3.073Z" fill="#fff"/>
      <path id="Trazado_10642" data-name="Trazado 10642" d="M2616.494,9009.116l-1.725-13.225-23.177,8.908.252,5.957,24.65-1.641Z" fill="#f5f3f3"/>
      <path id="Trazado_10643" data-name="Trazado 10643" d="M2591.89,9011.835l.213,4.957,25.55,1.477-.391-9.2-.769.052.011.084-24.614,2.635Z" fill="#fff"/>
      <path id="Trazado_10644" data-name="Trazado 10644" d="M2591.89,9011.835l24.614-2.635-.011-.084-24.65,1.641.046,1.078Z" fill="#f5f3f3"/>
      <path id="Trazado_10645" data-name="Trazado 10645" d="M2729.9,9029.063c-6.741,10.4-8.491,19.483-2.988,30.75,1.75,3.583,4.013,10.586,8.065,12.058,3.554,1.289,11.736-2.259,14.489-4.682a9.866,9.866,0,0,0-.057-14.528c-1.96,2.535-3.92,5.378-5.852,7.989-.775-4.737,1-9.813.15-14.268-.815-4.289-5.347-7.832-7.859-11.314a48.047,48.047,0,0,0-5.6-7.054l-.349,1.049Z" fill="#fc8b59"/>
      <path id="Trazado_10646" data-name="Trazado 10646" d="M2744.043,9050.713a17.476,17.476,0,0,0,5.368,1.948c-.992,2.21-3.315,6.043-5.852,7.989-.715-2.989-1.01-7.223.484-9.937Z" fill="#f6693b"/>
      <path id="Trazado_10647" data-name="Trazado 10647" d="M2740.61,9043.57l-8.911-14.194,13.547,11.758-4.635,2.437Z" fill="#fff"/>
      <path id="Trazado_10648" data-name="Trazado 10648" d="M2743.3,9013.682l-17.741,14.722,6.517,6.066,18.695-15.006-7.471-5.782Z" fill="#fff"/>
      <path id="Trazado_10649" data-name="Trazado 10649" d="M2752.382,9020.713l-17.8,16.09-2.508-2.333-.832.669,7.463,5.776,16.976-17.646-3.3-2.556Z" fill="#fff"/>
      <path id="Trazado_10650" data-name="Trazado 10650" d="M2752.382,9020.713l-1.615-1.249-18.695,15.006,2.508,2.333,17.8-16.09Z" fill="#f5f3f3"/>
      <path id="Trazado_10651" data-name="Trazado 10651" d="M2746.6,9046.1l11.444,7.454,7.364-22.759-4.831-3.739L2746.6,9046.1Z" fill="#fff"/>
      <path id="Trazado_10652" data-name="Trazado 10652" d="M2759.7,9026.38l-4.023-3.111-16.976,17.646,7.464,5.78.434-.594-.071-.048,13.173-19.674Z" fill="#f5f3f3"/>
      <path id="Trazado_10653" data-name="Trazado 10653" d="M2759.7,9026.38l-13.173,19.674.071.048,13.977-19.044-.875-.678Z" fill="#f5f3f3"/>
      <path id="Trazado_10654" data-name="Trazado 10654" d="M2765.5,9035.994l-24.508-21.276,14.348-19.513-26.069-27.314s-7.268-13.1-1.829-27.45a75.227,75.227,0,0,1,10.7-18.963s44.287,44,56.945,76.854c-7.83,17.4-29.584,37.662-29.584,37.662Z" fill="#4b3642"/>
      <path id="Trazado_10655" data-name="Trazado 10655" d="M2701.969,8936.152c0,1.156-3.312,2.1-7.4,2.1s-7.4-.939-7.4-2.1,3.311-2.1,7.4-2.1,7.4.938,7.4,2.1Z" fill="#8c7682"/>
      <path id="Trazado_10656" data-name="Trazado 10656" d="M2651.659,8934.2c0,1.157-2.469,2.095-5.517,2.095s-5.521-.937-5.521-2.095,2.472-2.1,5.521-2.1,5.517.939,5.517,2.1Z" fill="#8c7682"/>
      <path id="Trazado_10657" data-name="Trazado 10657" d="M2647.81,8967.225c0,1.158-2.472,2.1-5.521,2.1s-5.521-.938-5.521-2.1,2.472-2.1,5.521-2.1,5.521.939,5.521,2.1Z" fill="#8c7682"/>
      <path id="Trazado_10658" data-name="Trazado 10658" d="M2701.969,8968.705c0,1.158-3.312,2.1-7.4,2.1s-7.4-.938-7.4-2.1,3.311-2.1,7.4-2.1,7.4.938,7.4,2.1Z" fill="#8c7682"/>
      <path id="Trazado_10659" data-name="Trazado 10659" d="M2707.394,9000.517c0,1.158-3.312,2.1-7.4,2.1s-7.4-.939-7.4-2.1,3.312-2.1,7.4-2.1,7.4.939,7.4,2.1Z" fill="#8c7682"/>
      <path id="Trazado_10660" data-name="Trazado 10660" d="M2716.765,9035.906c0,1.158-3.312,2.1-7.4,2.1s-7.4-.938-7.4-2.1,3.312-2.1,7.4-2.1,7.4.939,7.4,2.1Z" fill="#8c7682"/>
    </g>
  </g>
</svg>
